HIERARCHY
ROOT Hips
{
  OFFSET 0 0 0
  CHANNELS 6 Xposition Yposition Zposition Zrotation Yrotation Xrotation
  JOINT LeftThigh
  {
    OFFSET 8.409438 0 -5.917753
    CHANNELS 3 Zrotation Yrotation Xrotation
    JOINT LeftLeg
    {
      OFFSET 0 0 -42.358652
      CHANNELS 3 Zrotation Yrotation Xrotation
      JOINT LeftFoot
      {
        OFFSET 0 0 -39.357303
        CHANNELS 3 Zrotation Yrotation Xrotation
      }
    }
  }
  JOINT RightThigh
  {
    OFFSET -8.409438 0 -5.917753
    CHANNELS 3 Zrotation Yrotation Xrotation
    JOINT RightLeg
    {
      OFFSET 0 0 -42.358652
      CHANNELS 3 Zrotation Yrotation Xrotation
      JOINT RightFoot
      {
        OFFSET 0 0 -39.357303
        CHANNELS 3 Zrotation Yrotation Xrotation
      }
    }
  }
  JOINT SpineLow
  {
    OFFSET 0 0 4.719101
    CHANNELS 3 Zrotation Yrotation Xrotation
    JOINT SpineMid
    {
      OFFSET 0 0 12.899191
      CHANNELS 3 Zrotation Yrotation Xrotation
      JOINT Chest
      {
        OFFSET 0 0 12.899191
        CHANNELS 3 Zrotation Yrotation Xrotation
        JOINT LeftShoulder
        {
          OFFSET 7.550562 1.41573 9.438202
          CHANNELS 3 Zrotation Yrotation Xrotation
          JOINT LeftArm
          {
            OFFSET 9.155056 0 4.247191
            CHANNELS 3 Zrotation Yrotation Xrotation
            JOINT LeftForearm
            {
              OFFSET 0 0 25.771955
              CHANNELS 3 Zrotation Yrotation Xrotation
              JOINT LeftHand
              {
                OFFSET 0 0 25.197169
                CHANNELS 3 Zrotation Yrotation Xrotation
              }
            }
          }
        }
        JOINT RightShoulder
        {
          OFFSET -7.550562 1.41573 9.438202
          CHANNELS 3 Zrotation Yrotation Xrotation
          JOINT RightArm
          {
            OFFSET -9.155056 0 4.247191
            CHANNELS 3 Zrotation Yrotation Xrotation
            JOINT RightForearm
            {
              OFFSET 0 0 -25.771955
              CHANNELS 3 Zrotation Yrotation Xrotation
              JOINT RightHand
              {
                OFFSET 0 0 -25.197169
                CHANNELS 3 Zrotation Yrotation Xrotation
              }
            }
          }
        }
        JOINT Neck
        {
          OFFSET 0 0 15.101124
          CHANNELS 3 Zrotation Yrotation Xrotation
          JOINT Head
          {
            OFFSET 0 0 11.325843
            CHANNELS 3 Zrotation Yrotation Xrotation
            End Site
            {
              OFFSET 0 0 14.157303
            }
          }
        }
      }
    }
  }
}
MOTION
Frames: 7
Frame Time: 0.0
0.0  89.887642  0.0  -1.474761  0.799356  -133.409541  1.213598  -13.36451  29.801556  -14.614557  8.899505  25.527205  -5.441984  -0.420612  0.663413  29.356226  3.859311  -100.221732  1.950592  20.963081  123.229452  15.955706  -2.265188  3.739786  -1.900335  -1.391258  1.290068  -5.272029  -3.697486  3.636647  -5.272029  -3.697486  3.636648  -2.919837  46.279274  38.435882  -163.972202  64.594596  -112.4287  23.056829  -23.377918  16.14817  105.355209  14.546897  20.190673  10.891913  16.730648  47.649586  37.269713  32.309262  -14.464201  -17.665525  33.38259  -73.0062  111.666633  -44.678242  3.639653  -21.334548  17.121753  22.922279  -16.56566  12.084276  17.69944  
0.0  89.887642  0.0  -1.472511  0.758509  -133.170872  1.135958  -13.411712  29.595935  -14.22611  8.964397  25.652998  -5.511778  -0.456193  0.557732  29.388713  3.919477  -99.382661  1.881933  20.421254  123.116776  15.793624  -2.06426  3.580262  -1.977527  -1.337223  1.283424  -5.479497  -3.546175  3.618007  -5.479497  -3.546175  3.618007  -2.238191  45.611209  38.163946  -166.35653  65.121154  -114.608742  19.021864  -24.141464  17.04105  107.691108  14.496796  22.114237  11.491581  16.887058  47.357164  35.991604  30.971026  -14.992955  -16.85882  36.043527  -73.582377  115.455154  -44.30935  -0.636494  -21.223638  16.757782  22.96329  -16.474695  11.812785  17.718522  
0.0  89.887642  0.0  -1.458836  0.53735  -132.903203  1.184907  -13.55106  29.3108  -13.811751  9.032031  25.812165  -5.590562  -0.52436  0.47639  29.391032  3.589795  -98.427933  1.823156  19.384176  122.737389  15.573071  -1.904741  3.438957  -1.953614  -1.283537  1.293589  -5.411363  -3.400094  3.639928  -5.411363  -3.400094  3.639928  -2.193392  44.735518  37.61652  -167.419987  64.855207  -115.776491  16.531045  -24.731197  18.17093  109.36748  14.77812  23.303274  11.517892  16.938857  46.724223  35.402186  29.857024  -15.090907  -16.553706  38.880896  -74.447622  118.307831  -43.84331  -5.024252  -21.43353  16.2672  22.965773  -16.618329  11.43569  17.715669  
0.0  89.887642  0.0  -1.438579  0.227202  -132.643328  1.487418  -13.844759  29.038816  -13.714491  9.136778  25.855139  -5.694473  -0.641361  0.402146  29.402437  3.502486  -97.444246  1.384872  18.549495  122.305018  15.816348  -1.700697  3.341241  -1.874075  -1.217688  1.320005  -5.191143  -3.222667  3.702709  -5.191143  -3.222667  3.702709  -2.515932  43.709717  36.993617  -166.84994  64.02095  -115.583075  16.180629  -25.081096  19.103108  110.275543  15.360091  23.994312  10.949533  17.070635  45.987344  36.100964  29.495387  -14.817886  -17.2042  41.33669  -75.27191  119.684792  -43.665459  -8.379566  -21.710476  15.70479  22.950003  -16.809564  11.002684  17.698923  
0.0  89.887642  0.0  -1.390233  -0.271395  -132.330281  2.016326  -14.190505  28.737073  -13.962261  9.158237  25.684798  -5.655379  -0.628711  0.429298  29.533443  4.075713  -96.626319  0.417597  18.011692  122.164482  16.250099  -1.515578  3.202791  -1.744853  -1.181903  1.377926  -4.838311  -3.128028  3.852124  -4.838311  -3.128028  3.852124  -3.122755  42.815903  36.167537  -164.890384  63.039662  -114.241585  17.931  -25.181737  19.521352  110.887171  15.697582  24.15712  10.442902  17.033885  45.172519  37.147263  29.765926  -14.253183  -18.660526  43.284564  -75.757484  120.507336  -43.654809  -10.321831  -22.047033  15.140988  22.791566  -17.041345  10.571401  17.576532  
0.0  89.887642  0.0  -1.201693  -0.866227  -131.898688  2.568816  -14.346136  28.316681  -14.078394  9.207155  25.479561  -5.422478  -0.619838  0.542097  29.789228  5.141895  -95.92171  -0.926041  17.710052  122.211161  16.46921  -1.230377  3.113704  -1.597411  -1.157448  1.437716  -4.436366  -3.065903  4.007014  -4.436366  -3.065903  4.007014  -4.040597  42.114109  35.126772  -161.947073  62.070319  -112.30842  20.740729  -24.955358  19.739463  113.360388  15.555075  24.998767  9.65729  17.087776  44.136505  38.724907  30.401204  -13.420247  -20.289609  44.91873  -75.98661  121.179872  -43.84089  -11.277058  -22.307516  14.62485  22.548614  -17.215621  10.18186  17.389219  
0.0  89.887642  0.0  -0.850068  -1.548989  -131.38557  3.139702  -14.360119  27.802339  -14.213357  9.231898  25.268835  -5.241525  -0.500232  0.551594  30.011628  5.686962  -95.153988  -1.737322  17.280603  122.084781  16.574101  -0.976385  3.230274  -1.429696  -1.135229  1.510798  -3.979664  -3.011055  4.197776  -3.979664  -3.011055  4.197776  -4.704694  41.517395  34.334685  -158.935368  61.403036  -110.060576  22.954734  -24.328251  20.352246  115.717205  14.785251  26.263523  9.266162  16.907663  43.396066  39.578982  31.235648  -12.951907  -21.800155  45.748917  -75.829016  121.620285  -44.259337  -11.335691  -22.500794  14.143268  22.213988  -17.33861  9.824181  17.131779  
